<?xml version="1.0" encoding="utf-8"?>
<!-- Generator: Adobe Illustrator 18.0.0, SVG Export Plug-In . SVG Version: 6.00 Build 0)  -->
<!DOCTYPE svg PUBLIC "-//W3C//DTD SVG 1.1//EN" "http://www.w3.org/Graphics/SVG/1.1/DTD/svg11.dtd">
<svg version="1.1" xmlns="http://www.w3.org/2000/svg" xmlns:xlink="http://www.w3.org/1999/xlink" x="0px" y="0px"
	 viewBox="0 391 20.2 9" enable-background="new 0 391 20.2 9" xml:space="preserve" preserveAspectRatio="none slice">
<filter  height="12.73571" width="1.18613" x="-.09306" y="-5.86785" id="filter4567-6">
	<feGaussianBlur  stdDeviation=".75041"></feGaussianBlur>
</filter>
<filter  height="1.03792" width="2.73623" x="-.86811" y="-.01896" id="filter4540-5">
	<feGaussianBlur  stdDeviation=".53904"></feGaussianBlur>
</filter>
<filter  height="2.32324" width="2.22872" x="-.61436" y="-.66162" id="filter3733-4">
	<feGaussianBlur  stdDeviation="18.72333"></feGaussianBlur>
</filter>
<filter  id="filter3725-6">
	<feGaussianBlur  stdDeviation="2.22482"></feGaussianBlur>
</filter>
<filter  height="2.28469" width="2.19293" x="-.59647" y="-.64235" id="filter3707-2">
	<feGaussianBlur  stdDeviation="18.17799"></feGaussianBlur>
</filter>
<filter  height="2.4774" width="2.37187" x="-.68594" y="-.7387" id="filter3703-3">
	<feGaussianBlur  stdDeviation="20.90469"></feGaussianBlur>
</filter>
<filter  id="filter3663-1">
	<feGaussianBlur  stdDeviation="2.63449"></feGaussianBlur>
</filter>
<filter  id="filter3655-7">
	<feGaussianBlur  stdDeviation="2.20702"></feGaussianBlur>
</filter>
<filter  id="filter3624-5">
	<feGaussianBlur  stdDeviation="1.09681"></feGaussianBlur>
</filter>
<g id="Layer_1" display="none">
	
		<linearGradient id="SVGID_1_" gradientUnits="userSpaceOnUse" x1="209.6632" y1="-395.2186" x2="208.755" y2="-455.4602" gradientTransform="matrix(1.1929 0 0 -0.6159 -49.471 103.5267)">
		<stop  offset="0" style="stop-color:#3465A4"/>
		<stop  offset="1" style="stop-color:#729FCF"/>
	</linearGradient>
	<path opacity="0.8" fill="url(#SVGID_1_)" enable-background="new    " d="M0.6,348.1h398.4v52H0.6L0.6,348.1z"/>
	
		<linearGradient id="SVGID_2_" gradientUnits="userSpaceOnUse" x1="38.7603" y1="-199.0981" x2="-91.778" y2="-214.3401" gradientTransform="matrix(0.238 0.238 0.2467 -0.2467 154.5513 332.2932)">
		<stop  offset="0" style="stop-color:#870B1A"/>
		<stop  offset="1" style="stop-color:#6A5570"/>
	</linearGradient>
	<path fill="url(#SVGID_2_)" d="M152.4,395.3c-20.7,3-54.8,2.9-76.3-0.2c-21.4-3.1-22-8-1.3-11s54.8-2.9,76.3,0.2
		S173.1,392.4,152.4,395.3z"/>
	<g transform="matrix(.18512,.18512,-.18253,.18253,144.07784,66.02598)">
		<g display="inline" opacity="0.6" filter="url(#filter3624-5)" enable-background="new    ">
			<path fill="none" stroke="#130909" stroke-width="4.2" stroke-dasharray="12.6,4.2" d="M810.6,911.7
				c96.6-69.1,23.5,53.5-108.6,177.8"/>
		</g>
		<path display="inline" fill="none" stroke="#BD8C8C" stroke-width="4.19" stroke-dasharray="8.38,4.19,2.095,4.19" d="M812.8,909
			c92.9-65,21.1,56.5-110.9,180.5"/>
	</g>
	<g transform="matrix(.18512,.18512,-.18253,.18253,148.48357,68.25202)">
		<g display="inline" opacity="0.6" filter="url(#filter3624-5)" enable-background="new    ">
			<path fill="none" stroke="#130909" stroke-width="4.2" stroke-dasharray="12.6,4.2" d="M809.5,902.9
				c87.4-60.6,9.7,65.8-114.7,184"/>
		</g>
		<path display="inline" fill="none" stroke="#C1AAAA" stroke-width="4.19" stroke-dasharray="8.38,4.19,2.095,4.19" d="
			M807.4,903.8c92.9-65,10,67.5-110.2,181.5"/>
		<g display="inline" filter="url(#filter3655-7)">
			<path fill="none" stroke="#383434" stroke-width="4.19" stroke-dasharray="8.38,4.19,2.095,4.19" d="M831.5,883.5
				c92.9-65,10,67.5-110.2,181.5"/>
		</g>
	</g>
	<path fill="none" stroke="#B2B2B2" stroke-width="0.7019" stroke-dasharray="2.8075,1.4038" d="M97.4,397.1
		c43.1-1.1,68.5-4.5,55.2-12.5"/>
	<g filter="url(#filter3663-1)">
		<path display="inline" fill="none" stroke="#553E3E" stroke-width="2.7" stroke-dasharray="10.8,5.4" d="M98.2,397
			c43.1-1.1,68.2-4.4,54.9-12.3"/>
	</g>
	<g filter="url(#filter3663-1)">
		<path display="inline" fill="none" stroke="#553E3E" stroke-width="2.7" stroke-dasharray="10.8,5.4" d="M102.4,397.2
			c31.6-0.7,66.9-4.2,53.6-12.1"/>
	</g>
	<path fill="none" stroke="#B4B1B1" stroke-width="0.7019" stroke-dasharray="2.8075,1.4038" d="M103.7,397.2
		c28.5-0.6,65.8-4,52.5-11.9"/>
	<g filter="url(#filter3733-4)">
		
			<radialGradient id="SVGID_3_" cx="151.9108" cy="-62.4749" r="36.5716" gradientTransform="matrix(0.2115 -3.046636e-002 -0.2696 -3.884579e-002 55.7836 392.1624)" gradientUnits="userSpaceOnUse">
			<stop  offset="0" style="stop-color:#FFFEFC"/>
			<stop  offset="1" style="stop-color:#E91B63"/>
		</radialGradient>
		<path display="inline" fill="url(#SVGID_3_)" d="M111.2,390.9c-3.2,0.5-8.7,0.4-12.3-0.1s-3.8-1.3-0.5-1.8
			c3.2-0.5,8.7-0.4,12.3,0.1C114.2,389.6,114.4,390.4,111.2,390.9z"/>
		<path display="inline" fill="none" stroke="#C50707" stroke-width="6.7" stroke-linecap="round" stroke-linejoin="round" d="
			M111.2,390.9c-3.2,0.5-8.7,0.4-12.3-0.1s-3.8-1.3-0.5-1.8c3.2-0.5,8.7-0.4,12.3,0.1C114.2,389.6,114.4,390.4,111.2,390.9z"/>
	</g>
	<g opacity="0.4211" filter="url(#filter3703-3)" enable-background="new    ">
		<path display="inline" fill="#E7165A" d="M115.6,386.3c-2.3,0.3-6.1,0.3-8.5-0.1c-2.5-0.4-2.6-0.9-0.4-1.2s6.1-0.3,8.5,0.1
			C117.7,385.4,117.9,385.9,115.6,386.3z"/>
	</g>
	<g opacity="0.4632" filter="url(#filter3707-2)" enable-background="new    ">
		<path display="inline" fill="#AD031D" d="M82.4,389c-2.3,0.3-6.1,0.3-8.5-0.1c-2.5-0.4-2.6-0.9-0.4-1.2s6.1-0.3,8.5,0.1
			C84.5,388.1,84.6,388.6,82.4,389z"/>
	</g>
	<g opacity="0.2263" filter="url(#filter3725-6)" enable-background="new    ">
		<path display="inline" fill="#212121" d="M123.7,396.9c22.1-1.2,50-2.9,39.1-9.3C160.5,391.1,154.2,394.4,123.7,396.9z"/>
	</g>
	<path fill="#E1BD74" d="M211.7,356.3c-5.7,0.1-10.8,0.8-10.7,1.5l0.8,37.8c-0.5,0.8,10.4,0.3,16.4,0.2s5.7,0.3,5.2-0.4l-0.7-37.8
		C222.8,356.9,217.5,356.3,211.7,356.3L211.7,356.3z"/>
	<g filter="url(#filter4540-5)">
		<path display="inline" fill="#816519" d="M213,356.4c-1.7,0.1-3.2,0.8-3.2,1.5l0.3,37.2c-0.2,0.8,3.1,0.3,4.9,0.2
			c1.8-0.1,1.7,0.3,1.5-0.4l-0.2-37.2C216.2,357,214.7,356.4,213,356.4L213,356.4z"/>
	</g>
	<path fill="#E1BD74" d="M284.3,356.2c-5.7,0.1-10.8,0.8-10.7,1.5l0.8,37.8c-0.5,0.8,10.4,0.3,16.4,0.2s5.7,0.3,5.2-0.4l-0.7-37.8
		C295.4,356.8,290.1,356.2,284.3,356.2z"/>
	<g filter="url(#filter4540-5)">
		<path display="inline" fill="#816519" d="M285.5,356.3c-1.7,0.1-3.2,0.8-3.2,1.5l0.3,37.3c-0.2,0.8,3.1,0.3,4.9,0.2
			c1.8-0.1,1.7,0.3,1.5-0.4l-0.2-37.3C288.8,356.9,287.2,356.3,285.5,356.3L285.5,356.3z"/>
	</g>
	<path fill="#E1BD74" d="M348.9,356.2c-5.7,0.1-10.8,0.8-10.7,1.5l0.8,37.8c-0.5,0.8,10.4,0.3,16.4,0.2s5.7,0.3,5.2-0.4l-0.7-37.8
		C360,356.8,354.7,356.2,348.9,356.2L348.9,356.2z"/>
	<g filter="url(#filter4540-5)">
		<path display="inline" fill="#816519" d="M350.1,356.3c-1.7,0.1-3.2,0.8-3.2,1.5l0.3,36.6c-0.2,0.8,3.1,0.3,4.9,0.2
			s1.7,0.3,1.5-0.4l-0.2-36.6C353.4,356.9,351.8,356.3,350.1,356.3L350.1,356.3z"/>
	</g>
	<g transform="matrix(3.19832,0,0,2.07106,-68.27046,-29.57253)">
		<path display="inline" fill="#95772C" stroke="#DBC779" stroke-width="3.1629" stroke-linecap="round" d="M83.2,186
			c25.5,0,23.6,0,23.6,0"/>
		<path display="inline" fill="#95772C" stroke="#DBC779" stroke-width="4.7788" stroke-linecap="round" d="M89.6,186h11.9"/>
	</g>
	<g transform="matrix(2.80439,0,0,.42319,-40.36788,-9.19032)" opacity="0.2263" filter="url(#filter4567-6)">
		<path display="inline" fill="#494949" stroke="#AC7148" stroke-width="3.1629" d="M84.2,862.2l25.5,0"/>
		<path display="inline" fill="#494949" stroke="#AC7148" stroke-width="4.7788" stroke-linecap="round" d="M90.5,862.2h11.9"/>
	</g>
	<g transform="matrix(-3.12665,0,0,2.07486,528.05827,-30.03593)">
		<path display="inline" fill="#95772C" stroke="#DBC779" stroke-width="3.1629" stroke-linecap="round" d="M54.5,185.9
			c25.5,0,23.6,0.1,23.6,0.1"/>
		<path display="inline" fill="#95772C" stroke="#DBC779" stroke-width="4.7788" stroke-linecap="round" d="M60.8,185.8h11.9"/>
	</g>
	<g transform="matrix(-2.74155,0,0,.42397,500.78091,-9.6163)" opacity="0.2263" filter="url(#filter4567-6)">
		<path display="inline" fill="#494949" stroke="#AC7148" stroke-width="3.1629" d="M51.4,861.5l25.5,0"/>
		<path display="inline" fill="#494949" stroke="#AC7148" stroke-width="4.7788" stroke-linecap="round" d="M57.7,861.4h11.9"/>
	</g>
	<path fill="#C6AD20" d="M235.8,354.7v1.8h1.2v-1.8H235.8z"/>
	<path fill="#C6AD20" d="M239.8,354.6v1.8h1.2v-1.8H239.8z"/>
	<path fill="#C6AD20" d="M235.8,354.7v1.8h1.2v-1.8H235.8z"/>
	<path fill="#C6AD20" d="M239.8,354.6v1.8h1.2v-1.8H239.8z"/>
	<path fill="#C6AD20" d="M317.6,354.4v1.8h1.1v-1.8H317.6z"/>
	<path fill="#C6AD20" d="M321.6,354.2v1.8h1.1v-1.8H321.6z"/>
	<path fill="#C6AD20" d="M317.6,354.4v1.8h1.1v-1.8H317.6z"/>
	<path fill="#C6AD20" d="M321.6,354.2v1.8h1.1v-1.8H321.6z"/>
	<g transform="matrix(.14655,0,0,.25722,1.08739,75.31594)" display="inline">
		
			<linearGradient id="SVGID_4_" gradientUnits="userSpaceOnUse" x1="1317.6547" y1="-1297.02" x2="1317.6547" y2="-1282.7537" gradientTransform="matrix(0.1928 0 0 -0.3384 -188.7561 822.7321)">
			<stop  offset="0" style="stop-color:#336404"/>
			<stop  offset="1" style="stop-color:#336404;stop-opacity:0"/>
		</linearGradient>
		<path fill="url(#SVGID_4_)" d="M55.5,1246.8c-2.2,0.5-9.1,4.1-11.5,4c-2.5,0-2.7-0.8-3-1.6c-0.2-0.6-0.5-1.2-2.3-1.2
			c-2.2,0-11.3,2.1-15.4,2c-1.2,0-0.1-1.3-0.5-1.6l-4.9,3.5l-8.9-3.1l-7.9,1.3l-5.7-0.8v13.3h64.4H71h64.4v-12.4l-5.7,0.7l-7.9-1.3
			l-8.9,2.8l-4.9-3.3c-0.4,0.3,0.6,1.5-0.5,1.5c-4,0.1-13.1-1.8-15.4-1.8c-1.8,0-2.1,0.6-2.3,1.2c-0.3,0.7-0.5,1.5-3,1.5
			c-2.4,0.1-9.3-3.2-11.5-3.7c-2.1,0.4,2,1.3-1.3,1.8l-3.1-0.4l-6.1-1.7l-7.9,1.1C53.5,1248.3,57.6,1247.3,55.5,1246.8z"/>
		
			<linearGradient id="SVGID_5_" gradientUnits="userSpaceOnUse" x1="1082.4137" y1="-1312.8202" x2="1085.3363" y2="-1313.1144" gradientTransform="matrix(-0.2284 0 0 -0.2088 255.5265 982.7377)">
			<stop  offset="0" style="stop-color:#336404"/>
			<stop  offset="1" style="stop-color:#4E9A06"/>
		</linearGradient>
		<path fill="url(#SVGID_5_)" d="M11.8,1250.6c0,0-7.6,5.1-8,7.7c-0.2,1.4-5,4.7-5,4.7l8.3,0c0,0,3.1-5.5,2.7-8.2
			C9.6,1253.2,11.8,1250.6,11.8,1250.6z"/>
		
			<linearGradient id="SVGID_6_" gradientUnits="userSpaceOnUse" x1="1109.3761" y1="-1204.5664" x2="1107.6318" y2="-1195.4106" gradientTransform="matrix(-0.1991 0 0 -0.3049 246.8914 888.8733)">
			<stop  offset="0" style="stop-color:#336404"/>
			<stop  offset="1" style="stop-color:#4E9A06"/>
		</linearGradient>
		<path fill="url(#SVGID_6_)" d="M22.5,1245.9c0,0,5,6.4,4.7,10.2c-0.2,2.1-4.4,6.9-4.4,6.9l7.3,0.1c0,0,2.7-8.1,2.4-11.9
			C32.2,1248.6,22.5,1245.9,22.5,1245.9L22.5,1245.9z"/>
		
			<linearGradient id="SVGID_7_" gradientUnits="userSpaceOnUse" x1="1080.3448" y1="-1304.3856" x2="1083.4893" y2="-1304.7023" gradientTransform="matrix(-0.2284 0 0 -0.2088 275.5291 982.7377)">
			<stop  offset="0" style="stop-color:#336404"/>
			<stop  offset="1" style="stop-color:#4E9A06"/>
		</linearGradient>
		<path fill="url(#SVGID_7_)" d="M19.1,1247.8c0,0,7.4,6.8,4.7,10.5c-1,1.4-5,4.7-5,4.7l8.3,0c0,0,3.1-5.5,2.7-8.2
			C29.6,1253.2,19.1,1247.8,19.1,1247.8z"/>
		
			<linearGradient id="SVGID_8_" gradientUnits="userSpaceOnUse" x1="1105.3094" y1="-1213.9806" x2="1107.0955" y2="-1214.1604" gradientTransform="matrix(0.1568 1.000975e-002 1.756880e-002 -0.2753 -151.7651 907.0639)">
			<stop  offset="0" style="stop-color:#4E9A06"/>
			<stop  offset="1" style="stop-color:#336404"/>
		</linearGradient>
		<path fill="url(#SVGID_8_)" d="M6.5,1242l-4.8,14.8l0.7,6.3l-5.8,0l4-15.1L6.5,1242z"/>
		
			<linearGradient id="SVGID_9_" gradientUnits="userSpaceOnUse" x1="1096.5493" y1="-1266.2661" x2="1094.8936" y2="-1257.5745" gradientTransform="matrix(0.1991 0 0 -0.2441 -210.7273 948.2245)">
			<stop  offset="0" style="stop-color:#336404"/>
			<stop  offset="1" style="stop-color:#4E9A06"/>
		</linearGradient>
		<path fill="url(#SVGID_9_)" d="M14.3,1248.2c0,0-11.5,6.2-11.2,9.2c0.2,1.7,4.4,5.5,4.4,5.5l-7.3,0c0,0-2.7-6.5-2.4-9.5
			C-1.9,1251.5,14.3,1248.2,14.3,1248.2L14.3,1248.2z"/>
		
			<linearGradient id="SVGID_10_" gradientUnits="userSpaceOnUse" x1="1080.8668" y1="-1170.3927" x2="1082.3727" y2="-1170.8024" gradientTransform="matrix(-0.1928 0 0 -0.3384 227.2547 856.1003)">
			<stop  offset="0" style="stop-color:#73D216"/>
			<stop  offset="1" style="stop-color:#4E9A06"/>
		</linearGradient>
		<path fill="url(#SVGID_10_)" d="M15.9,1243.9l-4.7,0.1l3.1,11.3L10,1263l7,0.1l2.3-13.2l-6.6-5.3L15.9,1243.9L15.9,1243.9z"/>
		
			<linearGradient id="SVGID_11_" gradientUnits="userSpaceOnUse" x1="1061.4814" y1="-1235.001" x2="1062.7133" y2="-1235.9879" gradientTransform="matrix(0.1752 0 0 -0.2441 -167.3386 948.2245)">
			<stop  offset="0" style="stop-color:#73D216"/>
			<stop  offset="1" style="stop-color:#4E9A06"/>
		</linearGradient>
		<path fill="url(#SVGID_11_)" d="M36.7,1247.5c0,0-16.4,6.9-16.1,10c0.2,1.7,3.8,5.5,3.8,5.5l-6.4,0c0,0-2.4-6.5-2.1-9.5
			C16.1,1251.5,36.7,1247.5,36.7,1247.5L36.7,1247.5z"/>
		
			<linearGradient id="SVGID_12_" gradientUnits="userSpaceOnUse" x1="938.7007" y1="-1259.4775" x2="941.6499" y2="-1259.7744" gradientTransform="matrix(0.1928 0 0 -0.3384 -188.7561 822.7321)">
			<stop  offset="0" style="stop-color:#73D216"/>
			<stop  offset="1" style="stop-color:#4E9A06"/>
		</linearGradient>
		<path fill="url(#SVGID_12_)" d="M0.4,1235.9l-4.7,19.4L0,1263l-7,0.1l-3.3-18.6C-10.4,1244.4,0.4,1235.9,0.4,1235.9z"/>
		
			<linearGradient id="SVGID_13_" gradientUnits="userSpaceOnUse" x1="1080.5358" y1="-1168.3174" x2="1083.7733" y2="-1168.6434" gradientTransform="matrix(-0.1928 0 0 -0.3384 245.8626 856.1003)">
			<stop  offset="0" style="stop-color:#73D216"/>
			<stop  offset="1" style="stop-color:#4E9A06"/>
		</linearGradient>
		<path fill="url(#SVGID_13_)" d="M27.2,1241.2l5.7,14.1l-4.2,7.7l7,0.1l2.3-13.2L27.2,1241.2L27.2,1241.2z"/>
		
			<linearGradient id="SVGID_14_" gradientUnits="userSpaceOnUse" x1="1079.4596" y1="-1306.6958" x2="1082.9124" y2="-1307.0435" gradientTransform="matrix(-0.2284 0 0 -0.2088 261.1081 982.7377)">
			<stop  offset="0" style="stop-color:#73D216"/>
			<stop  offset="1" style="stop-color:#4E9A06"/>
		</linearGradient>
		<path fill="url(#SVGID_14_)" d="M0.7,1249c0,0,9.1,6.7,8.7,9.3c-0.2,1.4-5,4.7-5,4.7l8.3,0c0,0,3.1-5.5,2.7-8.2
			C15.2,1253.2,0.7,1249,0.7,1249L0.7,1249z"/>
		
			<linearGradient id="SVGID_15_" gradientUnits="userSpaceOnUse" x1="1079.4597" y1="-1306.6958" x2="1082.9125" y2="-1307.0435" gradientTransform="matrix(-0.2284 0 0 -0.2088 273.6686 982.7377)">
			<stop  offset="0" style="stop-color:#73D216"/>
			<stop  offset="1" style="stop-color:#4E9A06"/>
		</linearGradient>
		<path fill="url(#SVGID_15_)" d="M13.2,1249c0,0,9.1,6.7,8.7,9.3c-0.2,1.4-5,4.7-5,4.7l8.3,0c0,0,3.1-5.5,2.7-8.2
			C27.7,1253.2,13.2,1249,13.2,1249L13.2,1249z"/>
		
			<linearGradient id="SVGID_16_" gradientUnits="userSpaceOnUse" x1="1082.4111" y1="-1312.8203" x2="1085.3337" y2="-1313.1145" gradientTransform="matrix(-0.2284 0 0 -0.2088 301.3239 982.7377)">
			<stop  offset="0" style="stop-color:#336404"/>
			<stop  offset="1" style="stop-color:#4E9A06"/>
		</linearGradient>
		<path fill="url(#SVGID_16_)" d="M57.6,1250.6c0,0-7.6,5.1-8,7.7c-0.2,1.4-5,4.7-5,4.7l8.3,0c0,0,3.1-5.5,2.7-8.2
			C55.4,1253.2,57.6,1250.6,57.6,1250.6z"/>
		
			<linearGradient id="SVGID_17_" gradientUnits="userSpaceOnUse" x1="1109.3774" y1="-1204.5664" x2="1107.6332" y2="-1195.4105" gradientTransform="matrix(-0.1991 0 0 -0.3049 286.8033 888.8733)">
			<stop  offset="0" style="stop-color:#336404"/>
			<stop  offset="1" style="stop-color:#4E9A06"/>
		</linearGradient>
		<path fill="url(#SVGID_17_)" d="M62.4,1245.9c0,0,5,6.4,4.7,10.2c-0.2,2.1-4.4,6.9-4.4,6.9l7.3,0.1c0,0,2.7-8.1,2.4-11.9
			C72.1,1248.6,62.4,1245.9,62.4,1245.9L62.4,1245.9z"/>
		
			<linearGradient id="SVGID_18_" gradientUnits="userSpaceOnUse" x1="1079.1176" y1="-1308.6776" x2="1082.2913" y2="-1308.9972" gradientTransform="matrix(-0.2284 0 0 -0.2088 307.9804 982.7377)">
			<stop  offset="0" style="stop-color:#336404"/>
			<stop  offset="1" style="stop-color:#4E9A06"/>
		</linearGradient>
		<path fill="url(#SVGID_18_)" d="M51.8,1249.6c0,0,7.2,5,4.5,8.7c-1,1.4-5,4.7-5,4.7l8.3,0c0,0,3.1-5.5,2.7-8.2
			C62.1,1253.2,51.8,1249.6,51.8,1249.6L51.8,1249.6z"/>
		
			<linearGradient id="SVGID_19_" gradientUnits="userSpaceOnUse" x1="1105.3098" y1="-1213.9805" x2="1107.0957" y2="-1214.1603" gradientTransform="matrix(0.1568 1.000975e-002 1.756880e-002 -0.2753 -118.1964 907.0639)">
			<stop  offset="0" style="stop-color:#4E9A06"/>
			<stop  offset="1" style="stop-color:#336404"/>
		</linearGradient>
		<path fill="url(#SVGID_19_)" d="M40.1,1242l-4.8,14.8l0.7,6.3l-5.8,0l4-15.1L40.1,1242z"/>
		
			<linearGradient id="SVGID_20_" gradientUnits="userSpaceOnUse" x1="1096.5494" y1="-1266.2661" x2="1094.8937" y2="-1257.5745" gradientTransform="matrix(0.1991 0 0 -0.2441 -173.2766 948.2245)">
			<stop  offset="0" style="stop-color:#336404"/>
			<stop  offset="1" style="stop-color:#4E9A06"/>
		</linearGradient>
		<path fill="url(#SVGID_20_)" d="M51.7,1248.2c0,0-11.5,6.2-11.2,9.2c0.2,1.7,4.4,5.5,4.4,5.5l-7.3,0c0,0-2.7-6.5-2.4-9.5
			C35.5,1251.5,51.7,1248.2,51.7,1248.2L51.7,1248.2z"/>
		
			<linearGradient id="SVGID_21_" gradientUnits="userSpaceOnUse" x1="1077.5308" y1="-1168.2666" x2="1079.1445" y2="-1168.7056" gradientTransform="matrix(-0.1928 0 0 -0.3384 280.0942 856.1003)">
			<stop  offset="0" style="stop-color:#73D216"/>
			<stop  offset="1" style="stop-color:#4E9A06"/>
		</linearGradient>
		<path fill="url(#SVGID_21_)" d="M60.1,1243.9l3.9,0l3.1,11.3l-4.2,7.7l7,0.1l2.3-13.2l-6.8-6.1L60.1,1243.9L60.1,1243.9z"/>
		
			<linearGradient id="SVGID_22_" gradientUnits="userSpaceOnUse" x1="1061.4814" y1="-1235.001" x2="1062.7133" y2="-1235.9879" gradientTransform="matrix(0.1752 0 0 -0.2441 -131.8765 948.2245)">
			<stop  offset="0" style="stop-color:#73D216"/>
			<stop  offset="1" style="stop-color:#4E9A06"/>
		</linearGradient>
		<path fill="url(#SVGID_22_)" d="M72.2,1247.5c0,0-16.4,6.9-16.1,10c0.2,1.7,3.8,5.5,3.8,5.5l-6.4,0c0,0-2.4-6.5-2.1-9.5
			C51.6,1251.5,72.2,1247.5,72.2,1247.5L72.2,1247.5z"/>
		
			<linearGradient id="SVGID_23_" gradientUnits="userSpaceOnUse" x1="1086.475" y1="-1182.2021" x2="1089.4242" y2="-1182.499" gradientTransform="matrix(-0.1928 0 0 -0.3092 255.1113 884.6669)">
			<stop  offset="0" style="stop-color:#73D216"/>
			<stop  offset="1" style="stop-color:#4E9A06"/>
		</linearGradient>
		<path fill="url(#SVGID_23_)" d="M37.4,1238.2l4.7,17.8l-4.2,7l7,0.1l3.3-17L37.4,1238.2L37.4,1238.2z"/>
		
			<linearGradient id="SVGID_24_" gradientUnits="userSpaceOnUse" x1="1080.5364" y1="-1168.3174" x2="1083.7739" y2="-1168.6433" gradientTransform="matrix(-0.1928 0 0 -0.3384 266.41 856.1003)">
			<stop  offset="0" style="stop-color:#73D216"/>
			<stop  offset="1" style="stop-color:#4E9A06"/>
		</linearGradient>
		<path fill="url(#SVGID_24_)" d="M47.7,1241.2l5.7,14.1l-4.2,7.7l7,0.1l2.3-13.2L47.7,1241.2L47.7,1241.2z"/>
		
			<linearGradient id="SVGID_25_" gradientUnits="userSpaceOnUse" x1="1079.4608" y1="-1306.6957" x2="1082.9136" y2="-1307.0433" gradientTransform="matrix(-0.2284 0 0 -0.2088 314.9909 982.7377)">
			<stop  offset="0" style="stop-color:#73D216"/>
			<stop  offset="1" style="stop-color:#4E9A06"/>
		</linearGradient>
		<path fill="url(#SVGID_25_)" d="M54.5,1249c0,0,9.1,6.7,8.7,9.3c-0.2,1.4-5,4.7-5,4.7l8.3,0c0,0,3.1-5.5,2.7-8.2
			C69.1,1253.2,54.5,1249,54.5,1249L54.5,1249z"/>
		<path fill="#4D9805" d="M58.4,1249c0,0,9.1,6.7,8.7,9.3c-0.2,1.4-5,4.7-5,4.7l8.3,0c0,0,3.1-5.5,2.7-8.2
			C72.9,1253.2,58.4,1249,58.4,1249L58.4,1249z"/>
		
			<linearGradient id="SVGID_26_" gradientUnits="userSpaceOnUse" x1="1056.5109" y1="-1312.8202" x2="1059.4335" y2="-1313.1145" gradientTransform="matrix(0.2284 0 0 -0.2088 -148.5704 982.7377)">
			<stop  offset="0" style="stop-color:#336404"/>
			<stop  offset="1" style="stop-color:#4E9A06"/>
		</linearGradient>
		<path fill="url(#SVGID_26_)" d="M89.2,1250.6c0,0,7.6,5.1,8,7.7c0.2,1.4,5,4.7,5,4.7l-8.3,0c0,0-3.1-5.5-2.7-8.2
			C91.4,1253.2,89.2,1250.6,89.2,1250.6z"/>
		
			<linearGradient id="SVGID_27_" gradientUnits="userSpaceOnUse" x1="1079.6588" y1="-1204.5664" x2="1077.9146" y2="-1195.4106" gradientTransform="matrix(0.1991 0 0 -0.3049 -95.199 888.8733)">
			<stop  offset="0" style="stop-color:#336404"/>
			<stop  offset="1" style="stop-color:#4E9A06"/>
		</linearGradient>
		<path fill="url(#SVGID_27_)" d="M123.3,1245.9c0,0-5,6.4-4.7,10.2c0.2,2.1,4.4,6.9,4.4,6.9l-7.3,0.1c0,0-2.7-8.1-2.4-11.9
			C113.6,1248.6,123.3,1245.9,123.3,1245.9L123.3,1245.9z"/>
		
			<linearGradient id="SVGID_28_" gradientUnits="userSpaceOnUse" x1="1054.4442" y1="-1304.3856" x2="1057.5886" y2="-1304.7021" gradientTransform="matrix(0.2284 0 0 -0.2088 -168.5741 982.7377)">
			<stop  offset="0" style="stop-color:#336404"/>
			<stop  offset="1" style="stop-color:#4E9A06"/>
		</linearGradient>
		<path fill="url(#SVGID_28_)" d="M81.9,1247.8c0,0-7.4,6.8-4.7,10.5c1,1.4,5,4.7,5,4.7l-8.3,0c0,0-3.1-5.5-2.7-8.2
			C71.4,1253.2,81.9,1247.8,81.9,1247.8z"/>
		
			<linearGradient id="SVGID_29_" gradientUnits="userSpaceOnUse" x1="1142.8757" y1="-1212.6144" x2="1144.6616" y2="-1212.7942" gradientTransform="matrix(-0.1568 1.000975e-002 -1.756880e-002 -0.2753 258.721 907.0639)">
			<stop  offset="0" style="stop-color:#4E9A06"/>
			<stop  offset="1" style="stop-color:#336404"/>
		</linearGradient>
		<path fill="url(#SVGID_29_)" d="M94.5,1242l4.8,14.8l-0.7,6.3l5.8,0l-4-15.1L94.5,1242z"/>
		
			<linearGradient id="SVGID_30_" gradientUnits="userSpaceOnUse" x1="1126.2633" y1="-1266.2661" x2="1124.6075" y2="-1257.5746" gradientTransform="matrix(-0.1991 0 0 -0.2441 317.6822 948.2245)">
			<stop  offset="0" style="stop-color:#336404"/>
			<stop  offset="1" style="stop-color:#4E9A06"/>
		</linearGradient>
		<path fill="url(#SVGID_30_)" d="M86.7,1248.2c0,0,11.5,6.2,11.2,9.2c-0.2,1.7-4.4,5.5-4.4,5.5l7.3,0c0,0,2.7-6.5,2.4-9.5
			C103,1251.5,86.7,1248.2,86.7,1248.2L86.7,1248.2z"/>
		
			<linearGradient id="SVGID_31_" gradientUnits="userSpaceOnUse" x1="1405.2041" y1="-1268.985" x2="1406.71" y2="-1269.3945" gradientTransform="matrix(0.1928 0 0 -0.3384 -188.7561 822.7321)">
			<stop  offset="0" style="stop-color:#73D216"/>
			<stop  offset="1" style="stop-color:#4E9A06"/>
		</linearGradient>
		<path fill="url(#SVGID_31_)" d="M85.2,1243.9l4.7,0.1l-3.1,11.3l4.2,7.7l-7,0.1l-2.3-13.2l6.6-5.3L85.2,1243.9L85.2,1243.9z"/>
		
			<linearGradient id="SVGID_32_" gradientUnits="userSpaceOnUse" x1="1095.2428" y1="-1235.0009" x2="1096.4747" y2="-1235.9877" gradientTransform="matrix(-0.1752 0 0 -0.2441 318.3735 948.2245)">
			<stop  offset="0" style="stop-color:#73D216"/>
			<stop  offset="1" style="stop-color:#4E9A06"/>
		</linearGradient>
		<path fill="url(#SVGID_32_)" d="M108.4,1247.5c0,0,16.4,6.9,16.1,10c-0.2,1.7-3.8,5.5-3.8,5.5l6.4,0c0,0,2.4-6.5,2.1-9.5
			C129,1251.5,108.4,1247.5,108.4,1247.5L108.4,1247.5z"/>
		
			<linearGradient id="SVGID_33_" gradientUnits="userSpaceOnUse" x1="1086.4753" y1="-1160.8853" x2="1089.4246" y2="-1161.1823" gradientTransform="matrix(-0.1928 0 0 -0.3384 299.2126 856.1003)">
			<stop  offset="0" style="stop-color:#73D216"/>
			<stop  offset="1" style="stop-color:#4E9A06"/>
		</linearGradient>
		<path fill="url(#SVGID_33_)" d="M81.5,1235.9l4.7,19.4L82,1263l7,0.1l3.3-18.6C92.3,1244.4,81.5,1235.9,81.5,1235.9z"/>
		
			<linearGradient id="SVGID_34_" gradientUnits="userSpaceOnUse" x1="1639.3175" y1="-1266.9095" x2="1642.5551" y2="-1267.2356" gradientTransform="matrix(0.1928 0 0 -0.3384 -188.7561 822.7321)">
			<stop  offset="0" style="stop-color:#73D216"/>
			<stop  offset="1" style="stop-color:#4E9A06"/>
		</linearGradient>
		<path fill="url(#SVGID_34_)" d="M137.7,1241.2l-5.7,14.1l4.2,7.7l-7,0.1l-2.3-13.2L137.7,1241.2L137.7,1241.2z"/>
		
			<linearGradient id="SVGID_35_" gradientUnits="userSpaceOnUse" x1="1053.5586" y1="-1306.6957" x2="1057.0114" y2="-1307.0433" gradientTransform="matrix(0.2284 0 0 -0.2088 -154.1529 982.7377)">
			<stop  offset="0" style="stop-color:#73D216"/>
			<stop  offset="1" style="stop-color:#4E9A06"/>
		</linearGradient>
		<path fill="url(#SVGID_35_)" d="M100.4,1249c0,0-9.1,6.7-8.7,9.3c0.2,1.4,5,4.7,5,4.7l-8.3,0c0,0-3.1-5.5-2.7-8.2
			C85.9,1253.2,100.4,1249,100.4,1249L100.4,1249z"/>
		
			<linearGradient id="SVGID_36_" gradientUnits="userSpaceOnUse" x1="1053.5585" y1="-1306.6958" x2="1057.0114" y2="-1307.0433" gradientTransform="matrix(0.2284 0 0 -0.2088 -166.7133 982.7377)">
			<stop  offset="0" style="stop-color:#73D216"/>
			<stop  offset="1" style="stop-color:#4E9A06"/>
		</linearGradient>
		<path fill="url(#SVGID_36_)" d="M87.8,1249c0,0-9.1,6.7-8.7,9.3c0.2,1.4,5,4.7,5,4.7l-8.3,0c0,0-3.1-5.5-2.7-8.2
			C73.3,1253.2,87.8,1249,87.8,1249L87.8,1249z"/>
		
			<linearGradient id="SVGID_37_" gradientUnits="userSpaceOnUse" x1="1056.5107" y1="-1312.8202" x2="1059.4335" y2="-1313.1145" gradientTransform="matrix(0.2284 0 0 -0.2088 -130.5532 982.7377)">
			<stop  offset="0" style="stop-color:#336404"/>
			<stop  offset="1" style="stop-color:#4E9A06"/>
		</linearGradient>
		<path fill="url(#SVGID_37_)" d="M107.2,1250.6c0,0,7.6,5.1,8,7.7c0.2,1.4,5,4.7,5,4.7l-8.3,0c0,0-3.1-5.5-2.7-8.2
			C109.5,1253.2,107.2,1250.6,107.2,1250.6z"/>
		
			<linearGradient id="SVGID_38_" gradientUnits="userSpaceOnUse" x1="1079.6588" y1="-1204.5664" x2="1077.9146" y2="-1195.4106" gradientTransform="matrix(0.1991 0 0 -0.3049 -116.0316 888.8733)">
			<stop  offset="0" style="stop-color:#336404"/>
			<stop  offset="1" style="stop-color:#4E9A06"/>
		</linearGradient>
		<path fill="url(#SVGID_38_)" d="M102.5,1245.9c0,0-5,6.4-4.7,10.2c0.2,2.1,4.4,6.9,4.4,6.9l-7.3,0.1c0,0-2.7-8.1-2.4-11.9
			C92.8,1248.6,102.5,1245.9,102.5,1245.9L102.5,1245.9z"/>
		
			<linearGradient id="SVGID_39_" gradientUnits="userSpaceOnUse" x1="1053.2153" y1="-1308.6776" x2="1056.389" y2="-1308.9972" gradientTransform="matrix(0.2284 0 0 -0.2088 -137.2088 982.7377)">
			<stop  offset="0" style="stop-color:#336404"/>
			<stop  offset="1" style="stop-color:#4E9A06"/>
		</linearGradient>
		<path fill="url(#SVGID_39_)" d="M113.1,1249.6c0,0-7.2,5-4.5,8.7c1,1.4,5,4.7,5,4.7l-8.3,0c0,0-3.1-5.5-2.7-8.2
			C102.8,1253.2,113.1,1249.6,113.1,1249.6L113.1,1249.6z"/>
		
			<linearGradient id="SVGID_40_" gradientUnits="userSpaceOnUse" x1="1142.8771" y1="-1212.6143" x2="1144.663" y2="-1212.7941" gradientTransform="matrix(-0.1568 1.000975e-002 -1.756880e-002 -0.2753 290.942 907.0639)">
			<stop  offset="0" style="stop-color:#4E9A06"/>
			<stop  offset="1" style="stop-color:#336404"/>
		</linearGradient>
		<path fill="url(#SVGID_40_)" d="M126.8,1242l4.8,14.8l-0.7,6.3l5.8,0l-4-15.1L126.8,1242z"/>
		
			<linearGradient id="SVGID_41_" gradientUnits="userSpaceOnUse" x1="1458.791" y1="-1266.8589" x2="1460.4047" y2="-1267.2979" gradientTransform="matrix(0.1928 0 0 -0.3384 -188.7561 822.7321)">
			<stop  offset="0" style="stop-color:#73D216"/>
			<stop  offset="1" style="stop-color:#4E9A06"/>
		</linearGradient>
		<path fill="url(#SVGID_41_)" d="M104.7,1243.9l-3.9,0l-3.1,11.3l4.2,7.7l-7,0.1l-2.3-13.2l6.8-6.1L104.7,1243.9L104.7,1243.9z"/>
		
			<linearGradient id="SVGID_42_" gradientUnits="userSpaceOnUse" x1="1095.2375" y1="-1235.0011" x2="1096.4694" y2="-1235.988" gradientTransform="matrix(-0.1752 0 0 -0.2441 302.6472 948.2245)">
			<stop  offset="0" style="stop-color:#73D216"/>
			<stop  offset="1" style="stop-color:#4E9A06"/>
		</linearGradient>
		<path fill="url(#SVGID_42_)" d="M92.7,1247.5c0,0,16.4,6.9,16.1,10c-0.2,1.7-3.8,5.5-3.8,5.5l6.4,0c0,0,2.4-6.5,2.1-9.5
			C113.3,1251.5,92.7,1247.5,92.7,1247.5L92.7,1247.5z"/>
		
			<linearGradient id="SVGID_43_" gradientUnits="userSpaceOnUse" x1="1055.8002" y1="-1182.202" x2="1058.7495" y2="-1182.4989" gradientTransform="matrix(0.1928 0 0 -0.3092 -84.3406 884.6669)">
			<stop  offset="0" style="stop-color:#73D216"/>
			<stop  offset="1" style="stop-color:#4E9A06"/>
		</linearGradient>
		<path fill="url(#SVGID_43_)" d="M127.4,1238.2l-4.7,17.8l4.2,7l-7,0.1l-3.3-17L127.4,1238.2L127.4,1238.2z"/>
		
			<linearGradient id="SVGID_44_" gradientUnits="userSpaceOnUse" x1="1532.7612" y1="-1266.9095" x2="1535.9988" y2="-1267.2356" gradientTransform="matrix(0.1928 0 0 -0.3384 -188.7561 822.7321)">
			<stop  offset="0" style="stop-color:#73D216"/>
			<stop  offset="1" style="stop-color:#4E9A06"/>
		</linearGradient>
		<path fill="url(#SVGID_44_)" d="M117.1,1241.2l-5.7,14.1l4.2,7.7l-7,0.1l-2.3-13.2L117.1,1241.2L117.1,1241.2z"/>
	</g>
</g>
<g id="Layer_1_copy">
	
		<linearGradient id="SVGID_45_" gradientUnits="userSpaceOnUse" x1="209.6632" y1="-395.2186" x2="208.755" y2="-455.4602" gradientTransform="matrix(1.1929 0 0 -0.6159 -49.471 103.5267)">
		<stop  offset="0" style="stop-color:#3465A4"/>
		<stop  offset="1" style="stop-color:#729FCF"/>
	</linearGradient>
	<path display="none" opacity="0.8" fill="url(#SVGID_45_)" enable-background="new    " d="M0.6,348.1h398.4v52H0.6L0.6,348.1z"/>
	
		<linearGradient id="SVGID_46_" gradientUnits="userSpaceOnUse" x1="38.7603" y1="-199.0981" x2="-91.778" y2="-214.3401" gradientTransform="matrix(0.238 0.238 0.2467 -0.2467 154.5513 332.2932)">
		<stop  offset="0" style="stop-color:#870B1A"/>
		<stop  offset="1" style="stop-color:#6A5570"/>
	</linearGradient>
	<path display="none" fill="url(#SVGID_46_)" d="M152.4,395.3c-20.7,3-54.8,2.9-76.3-0.2c-21.4-3.1-22-8-1.3-11s54.8-2.9,76.3,0.2
		S173.1,392.4,152.4,395.3z"/>
	<g transform="matrix(.18512,.18512,-.18253,.18253,144.07784,66.02598)" display="none">
		<g display="inline" opacity="0.6" filter="url(#filter3624-5)" enable-background="new    ">
			<path fill="none" d="M810.6,911.7c96.6-69.1,23.5,53.5-108.6,177.8"/>
		</g>
		<path display="inline" fill="none" d="M812.8,909c92.9-65,21.1,56.5-110.9,180.5"/>
	</g>
	<g transform="matrix(.18512,.18512,-.18253,.18253,148.48357,68.25202)" display="none">
		<g display="inline" opacity="0.6" filter="url(#filter3624-5)" enable-background="new    ">
			<path fill="none" d="M809.5,902.9c87.4-60.6,9.7,65.8-114.7,184"/>
		</g>
		<path display="inline" fill="none" d="M807.4,903.8c92.9-65,10,67.5-110.2,181.5"/>
		<g display="inline" filter="url(#filter3655-7)">
			<path fill="none" d="M831.5,883.5c92.9-65,10,67.5-110.2,181.5"/>
		</g>
	</g>
	<path display="none" fill="none" d="M97.4,397.1c43.1-1.1,68.5-4.5,55.2-12.5"/>
	<g display="none" filter="url(#filter3663-1)">
		<path display="inline" fill="none" d="M98.2,397c43.1-1.1,68.2-4.4,54.9-12.3"/>
	</g>
	<g display="none" filter="url(#filter3663-1)">
		<path display="inline" fill="none" d="M102.4,397.2c31.6-0.7,66.9-4.2,53.6-12.1"/>
	</g>
	<path display="none" fill="none" d="M103.7,397.2c28.5-0.6,65.8-4,52.5-11.9"/>
	<g display="none" filter="url(#filter3733-4)">
		
			<radialGradient id="SVGID_47_" cx="151.9108" cy="-62.4749" r="36.5716" gradientTransform="matrix(0.2115 -3.046636e-002 -0.2696 -3.884579e-002 55.7836 392.1624)" gradientUnits="userSpaceOnUse">
			<stop  offset="0" style="stop-color:#FFFEFC"/>
			<stop  offset="1" style="stop-color:#E91B63"/>
		</radialGradient>
		<path display="inline" fill="url(#SVGID_47_)" d="M111.2,390.9c-3.2,0.5-8.7,0.4-12.3-0.1s-3.8-1.3-0.5-1.8
			c3.2-0.5,8.7-0.4,12.3,0.1C114.2,389.6,114.4,390.4,111.2,390.9z"/>
	</g>
	<g display="none" opacity="0.4211" filter="url(#filter3703-3)" enable-background="new    ">
		<path display="inline" fill="#E7165A" d="M115.6,386.3c-2.3,0.3-6.1,0.3-8.5-0.1c-2.5-0.4-2.6-0.9-0.4-1.2s6.1-0.3,8.5,0.1
			C117.7,385.4,117.9,385.9,115.6,386.3z"/>
	</g>
	<g display="none" opacity="0.4632" filter="url(#filter3707-2)" enable-background="new    ">
		<path display="inline" fill="#AD031D" d="M82.4,389c-2.3,0.3-6.1,0.3-8.5-0.1c-2.5-0.4-2.6-0.9-0.4-1.2s6.1-0.3,8.5,0.1
			C84.5,388.1,84.6,388.6,82.4,389z"/>
	</g>
	<g display="none" opacity="0.2263" filter="url(#filter3725-6)" enable-background="new    ">
		<path display="inline" fill="#212121" d="M123.7,396.9c22.1-1.2,50-2.9,39.1-9.3C160.5,391.1,154.2,394.4,123.7,396.9z"/>
	</g>
	<path display="none" fill="#E1BD74" d="M211.7,356.3c-5.7,0.1-10.8,0.8-10.7,1.5l0.8,37.8c-0.5,0.8,10.4,0.3,16.4,0.2
		s5.7,0.3,5.2-0.4l-0.7-37.8C222.8,356.9,217.5,356.3,211.7,356.3L211.7,356.3z"/>
	<g display="none" filter="url(#filter4540-5)">
		<path display="inline" fill="#816519" d="M213,356.4c-1.7,0.1-3.2,0.8-3.2,1.5l0.3,37.2c-0.2,0.8,3.1,0.3,4.9,0.2
			c1.8-0.1,1.7,0.3,1.5-0.4l-0.2-37.2C216.2,357,214.7,356.4,213,356.4L213,356.4z"/>
	</g>
	<path display="none" fill="#E1BD74" d="M284.3,356.2c-5.7,0.1-10.8,0.8-10.7,1.5l0.8,37.8c-0.5,0.8,10.4,0.3,16.4,0.2
		s5.7,0.3,5.2-0.4l-0.7-37.8C295.4,356.8,290.1,356.2,284.3,356.2z"/>
	<g display="none" filter="url(#filter4540-5)">
		<path display="inline" fill="#816519" d="M285.5,356.3c-1.7,0.1-3.2,0.8-3.2,1.5l0.3,37.3c-0.2,0.8,3.1,0.3,4.9,0.2
			c1.8-0.1,1.7,0.3,1.5-0.4l-0.2-37.3C288.8,356.9,287.2,356.3,285.5,356.3L285.5,356.3z"/>
	</g>
	<path display="none" fill="#E1BD74" d="M348.9,356.2c-5.7,0.1-10.8,0.8-10.7,1.5l0.8,37.8c-0.5,0.8,10.4,0.3,16.4,0.2
		s5.7,0.3,5.2-0.4l-0.7-37.8C360,356.8,354.7,356.2,348.9,356.2L348.9,356.2z"/>
	<g display="none" filter="url(#filter4540-5)">
		<path display="inline" fill="#816519" d="M350.1,356.3c-1.7,0.1-3.2,0.8-3.2,1.5l0.3,36.6c-0.2,0.8,3.1,0.3,4.9,0.2
			s1.7,0.3,1.5-0.4l-0.2-36.6C353.4,356.9,351.8,356.3,350.1,356.3L350.1,356.3z"/>
	</g>
	<g transform="matrix(3.19832,0,0,2.07106,-68.27046,-29.57253)" display="none">
		<path display="inline" fill="#95772C" d="M83.2,186c25.5,0,23.6,0,23.6,0"/>
		<path display="inline" fill="#95772C" d="M89.6,186h11.9"/>
	</g>
	<g transform="matrix(2.80439,0,0,.42319,-40.36788,-9.19032)" display="none" opacity="0.2263" filter="url(#filter4567-6)">
		<path display="inline" fill="#854800" d="M84.2,862.2l25.5,0"/>
		<path display="inline" fill="#854800" d="M90.5,862.2h11.9"/>
	</g>
	<g transform="matrix(-3.12665,0,0,2.07486,528.05827,-30.03593)" display="none">
		<path display="inline" fill="#95772C" d="M54.5,185.9c25.5,0,23.6,0.1,23.6,0.1"/>
		<path display="inline" fill="#95772C" d="M60.8,185.8h11.9"/>
	</g>
	<g transform="matrix(-2.74155,0,0,.42397,500.78091,-9.6163)" display="none" opacity="0.2263" filter="url(#filter4567-6)">
		<path display="inline" fill="#854800" d="M51.4,861.5l25.5,0"/>
		<path display="inline" fill="#854800" d="M57.7,861.4h11.9"/>
	</g>
	<path display="none" fill="#C6AD20" d="M235.8,354.7v1.8h1.2v-1.8H235.8z"/>
	<path display="none" fill="#C6AD20" d="M239.8,354.6v1.8h1.2v-1.8H239.8z"/>
	<path display="none" fill="#C6AD20" d="M235.8,354.7v1.8h1.2v-1.8H235.8z"/>
	<path display="none" fill="#C6AD20" d="M239.8,354.6v1.8h1.2v-1.8H239.8z"/>
	<path display="none" fill="#C6AD20" d="M317.6,354.4v1.8h1.1v-1.8H317.6z"/>
	<path display="none" fill="#C6AD20" d="M321.6,354.2v1.8h1.1v-1.8H321.6z"/>
	<path display="none" fill="#C6AD20" d="M317.6,354.4v1.8h1.1v-1.8H317.6z"/>
	<path display="none" fill="#C6AD20" d="M321.6,354.2v1.8h1.1v-1.8H321.6z"/>
	<g transform="matrix(.14655,0,0,.25722,1.08739,75.31594)">
		
			<linearGradient id="SVGID_48_" gradientUnits="userSpaceOnUse" x1="1317.6547" y1="-1297.02" x2="1317.6547" y2="-1282.7537" gradientTransform="matrix(0.1928 0 0 -0.3384 -188.7561 822.7321)">
			<stop  offset="0" style="stop-color:#854800"/>
			<stop  offset="1" style="stop-color:#854800;stop-opacity:0"/>
		</linearGradient>
		<path fill="url(#SVGID_48_)" d="M55.5,1246.8c-2.2,0.5-9.1,4.1-11.5,4c-2.5,0-2.7-0.8-3-1.6c-0.2-0.6-0.5-1.2-2.3-1.2
			c-2.2,0-11.3,2.1-15.4,2c-1.2,0-0.1-1.3-0.5-1.6l-4.9,3.5l-8.9-3.1l-7.9,1.3l-5.7-0.8v13.3h64.4H71h64.4v-12.4l-5.7,0.7l-7.9-1.3
			l-8.9,2.8l-4.9-3.3c-0.4,0.3,0.6,1.5-0.5,1.5c-4,0.1-13.1-1.8-15.4-1.8c-1.8,0-2.1,0.6-2.3,1.2c-0.3,0.7-0.5,1.5-3,1.5
			c-2.4,0.1-9.3-3.2-11.5-3.7c-2.1,0.4,2,1.3-1.3,1.8l-3.1-0.4l-6.1-1.7l-7.9,1.1C53.5,1248.3,57.6,1247.3,55.5,1246.8z"/>
		<path fill="#854800" d="M11.8,1250.6c0,0-7.6,5.1-8,7.7c-0.2,1.4-5,4.7-5,4.7l8.3,0c0,0,3.1-5.5,2.7-8.2
			C9.6,1253.2,11.8,1250.6,11.8,1250.6z"/>
		<path fill="#854800" d="M22.5,1245.9c0,0,5,6.4,4.7,10.2c-0.2,2.1-4.4,6.9-4.4,6.9l7.3,0.1c0,0,2.7-8.1,2.4-11.9
			C32.2,1248.6,22.5,1245.9,22.5,1245.9L22.5,1245.9z"/>
		<path fill="#854800" d="M19.1,1247.8c0,0,7.4,6.8,4.7,10.5c-1,1.4-5,4.7-5,4.7l8.3,0c0,0,3.1-5.5,2.7-8.2
			C29.6,1253.2,19.1,1247.8,19.1,1247.8z"/>
		<path fill="#854800" d="M6.5,1242l-4.8,14.8l0.7,6.3l-5.8,0l4-15.1L6.5,1242z"/>
		<path fill="#854800" d="M14.3,1248.2c0,0-11.5,6.2-11.2,9.2c0.2,1.7,4.4,5.5,4.4,5.5l-7.3,0c0,0-2.7-6.5-2.4-9.5
			C-1.9,1251.5,14.3,1248.2,14.3,1248.2L14.3,1248.2z"/>
		<path fill="#854800" d="M15.9,1243.9l-4.7,0.1l3.1,11.3L10,1263l7,0.1l2.3-13.2l-6.6-5.3L15.9,1243.9L15.9,1243.9z"/>
		<path fill="#854800" d="M36.7,1247.5c0,0-16.4,6.9-16.1,10c0.2,1.7,3.8,5.5,3.8,5.5l-6.4,0c0,0-2.4-6.5-2.1-9.5
			C16.1,1251.5,36.7,1247.5,36.7,1247.5L36.7,1247.5z"/>
		<path fill="#854800" d="M0.4,1235.9l-4.7,19.4L0,1263l-7,0.1l-3.3-18.6C-10.4,1244.4,0.4,1235.9,0.4,1235.9z"/>
		<path fill="#854800" d="M27.2,1241.2l5.7,14.1l-4.2,7.7l7,0.1l2.3-13.2L27.2,1241.2L27.2,1241.2z"/>
		<path fill="#854800" d="M0.7,1249c0,0,9.1,6.7,8.7,9.3c-0.2,1.4-5,4.7-5,4.7l8.3,0c0,0,3.1-5.5,2.7-8.2
			C15.2,1253.2,0.7,1249,0.7,1249L0.7,1249z"/>
		<path fill="#854800" d="M13.2,1249c0,0,9.1,6.7,8.7,9.3c-0.2,1.4-5,4.7-5,4.7l8.3,0c0,0,3.1-5.5,2.7-8.2
			C27.7,1253.2,13.2,1249,13.2,1249L13.2,1249z"/>
		<path fill="#854800" d="M57.6,1250.6c0,0-7.6,5.1-8,7.7c-0.2,1.4-5,4.7-5,4.7l8.3,0c0,0,3.1-5.5,2.7-8.2
			C55.4,1253.2,57.6,1250.6,57.6,1250.6z"/>
		<path fill="#854800" d="M62.4,1245.9c0,0,5,6.4,4.7,10.2c-0.2,2.1-4.4,6.9-4.4,6.9l7.3,0.1c0,0,2.7-8.1,2.4-11.9
			C72.1,1248.6,62.4,1245.9,62.4,1245.9L62.4,1245.9z"/>
		<path fill="#854800" d="M51.8,1249.6c0,0,7.2,5,4.5,8.7c-1,1.4-5,4.7-5,4.7l8.3,0c0,0,3.1-5.5,2.7-8.2
			C62.1,1253.2,51.8,1249.6,51.8,1249.6L51.8,1249.6z"/>
		<path fill="#854800" d="M40.1,1242l-4.8,14.8l0.7,6.3l-5.8,0l4-15.1L40.1,1242z"/>
		<path fill="#854800" d="M51.7,1248.2c0,0-11.5,6.2-11.2,9.2c0.2,1.7,4.4,5.5,4.4,5.5l-7.3,0c0,0-2.7-6.5-2.4-9.5
			C35.5,1251.5,51.7,1248.2,51.7,1248.2L51.7,1248.2z"/>
		<path fill="#854800" d="M60.1,1243.9l3.9,0l3.1,11.3l-4.2,7.7l7,0.1l2.3-13.2l-6.8-6.1L60.1,1243.9L60.1,1243.9z"/>
		<path fill="#854800" d="M72.2,1247.5c0,0-16.4,6.9-16.1,10c0.2,1.7,3.8,5.5,3.8,5.5l-6.4,0c0,0-2.4-6.5-2.1-9.5
			C51.6,1251.5,72.2,1247.5,72.2,1247.5L72.2,1247.5z"/>
		<path fill="#854800" d="M37.4,1238.2l4.7,17.8l-4.2,7l7,0.1l3.3-17L37.4,1238.2L37.4,1238.2z"/>
		<path fill="#854800" d="M47.7,1241.2l5.7,14.1l-4.2,7.7l7,0.1l2.3-13.2L47.7,1241.2L47.7,1241.2z"/>
		<path fill="#854800" d="M54.5,1249c0,0,9.1,6.7,8.7,9.3c-0.2,1.4-5,4.7-5,4.7l8.3,0c0,0,3.1-5.5,2.7-8.2
			C69.1,1253.2,54.5,1249,54.5,1249L54.5,1249z"/>
		<path fill="#854800" d="M58.4,1249c0,0,9.1,6.7,8.7,9.3c-0.2,1.4-5,4.7-5,4.7l8.3,0c0,0,3.1-5.5,2.7-8.2
			C72.9,1253.2,58.4,1249,58.4,1249L58.4,1249z"/>
		<path fill="#854800" d="M89.2,1250.6c0,0,7.6,5.1,8,7.7c0.2,1.4,5,4.7,5,4.7l-8.3,0c0,0-3.1-5.5-2.7-8.2
			C91.4,1253.2,89.2,1250.6,89.2,1250.6z"/>
		<path fill="#854800" d="M123.3,1245.9c0,0-5,6.4-4.7,10.2c0.2,2.1,4.4,6.9,4.4,6.9l-7.3,0.1c0,0-2.7-8.1-2.4-11.9
			C113.6,1248.6,123.3,1245.9,123.3,1245.9L123.3,1245.9z"/>
		<path fill="#854800" d="M81.9,1247.8c0,0-7.4,6.8-4.7,10.5c1,1.4,5,4.7,5,4.7l-8.3,0c0,0-3.1-5.5-2.7-8.2
			C71.4,1253.2,81.9,1247.8,81.9,1247.8z"/>
		<path fill="#854800" d="M94.5,1242l4.8,14.8l-0.7,6.3l5.8,0l-4-15.1L94.5,1242z"/>
		<path fill="#854800" d="M86.7,1248.2c0,0,11.5,6.2,11.2,9.2c-0.2,1.7-4.4,5.5-4.4,5.5l7.3,0c0,0,2.7-6.5,2.4-9.5
			C103,1251.5,86.7,1248.2,86.7,1248.2L86.7,1248.2z"/>
		<path fill="#854800" d="M85.2,1243.9l4.7,0.1l-3.1,11.3l4.2,7.7l-7,0.1l-2.3-13.2l6.6-5.3L85.2,1243.9L85.2,1243.9z"/>
		<path fill="#854800" d="M108.4,1247.5c0,0,16.4,6.9,16.1,10c-0.2,1.7-3.8,5.5-3.8,5.5l6.4,0c0,0,2.4-6.5,2.1-9.5
			C129,1251.5,108.4,1247.5,108.4,1247.5L108.4,1247.5z"/>
		<path fill="#854800" d="M81.5,1235.9l4.7,19.4L82,1263l7,0.1l3.3-18.6C92.3,1244.4,81.5,1235.9,81.5,1235.9z"/>
		<path fill="#854800" d="M137.7,1241.2l-5.7,14.1l4.2,7.7l-7,0.1l-2.3-13.2L137.7,1241.2L137.7,1241.2z"/>
		<path fill="#854800" d="M100.4,1249c0,0-9.1,6.7-8.7,9.3c0.2,1.4,5,4.7,5,4.7l-8.3,0c0,0-3.1-5.5-2.7-8.2
			C85.9,1253.2,100.4,1249,100.4,1249L100.4,1249z"/>
		<path fill="#854800" d="M87.8,1249c0,0-9.1,6.7-8.7,9.3c0.2,1.4,5,4.7,5,4.7l-8.3,0c0,0-3.1-5.5-2.7-8.2
			C73.3,1253.2,87.8,1249,87.8,1249L87.8,1249z"/>
		<path fill="#854800" d="M107.2,1250.6c0,0,7.6,5.1,8,7.7c0.2,1.4,5,4.7,5,4.7l-8.3,0c0,0-3.1-5.5-2.7-8.2
			C109.5,1253.2,107.2,1250.6,107.2,1250.6z"/>
		<path fill="#854800" d="M102.5,1245.9c0,0-5,6.4-4.7,10.2c0.2,2.1,4.4,6.9,4.4,6.9l-7.3,0.1c0,0-2.7-8.1-2.4-11.9
			C92.8,1248.6,102.5,1245.9,102.5,1245.9L102.5,1245.9z"/>
		<path fill="#854800" d="M113.1,1249.6c0,0-7.2,5-4.5,8.7c1,1.4,5,4.7,5,4.7l-8.3,0c0,0-3.1-5.5-2.7-8.2
			C102.8,1253.2,113.1,1249.6,113.1,1249.6L113.1,1249.6z"/>
		<path fill="#854800" d="M126.8,1242l4.8,14.8l-0.7,6.3l5.8,0l-4-15.1L126.8,1242z"/>
		<path fill="#854800" d="M104.7,1243.9l-3.9,0l-3.1,11.3l4.2,7.7l-7,0.1l-2.3-13.2l6.8-6.1L104.7,1243.9L104.7,1243.9z"/>
		<path fill="#854800" d="M92.7,1247.5c0,0,16.4,6.9,16.1,10c-0.2,1.7-3.8,5.5-3.8,5.5l6.4,0c0,0,2.4-6.5,2.1-9.5
			C113.3,1251.5,92.7,1247.5,92.7,1247.5L92.7,1247.5z"/>
		<path fill="#854800" d="M127.4,1238.2l-4.7,17.8l4.2,7l-7,0.1l-3.3-17L127.4,1238.2L127.4,1238.2z"/>
		<path fill="#854800" d="M117.1,1241.2l-5.7,14.1l4.2,7.7l-7,0.1l-2.3-13.2L117.1,1241.2L117.1,1241.2z"/>
	</g>
</g>
</svg>
