<svg xmlns="http://www.w3.org/2000/svg" viewBox="0 391 20.2 9" enable-background="new 0 391 20.2 9" preserveAspectRatio="none slice"><filter height="12.736" width="1.186" y="-5.868" x="-.093" id="l"><feGaussianBlur stdDeviation=".75"/></filter><filter height="1.038" width="2.736" y="-.019" x="-.868" id="k"><feGaussianBlur stdDeviation=".539"/></filter><filter height="2.323" width="2.229" y="-.662" x="-.614" id="f"><feGaussianBlur stdDeviation="18.723"/></filter><filter id="j"><feGaussianBlur stdDeviation="2.225"/></filter><filter height="2.285" width="2.193" y="-.642" x="-.596" id="i"><feGaussianBlur stdDeviation="18.178"/></filter><filter height="2.477" width="2.372" y="-.739" x="-.686" id="h"><feGaussianBlur stdDeviation="20.905"/></filter><filter id="e"><feGaussianBlur stdDeviation="2.634"/></filter><filter id="d"><feGaussianBlur stdDeviation="2.207"/></filter><filter id="c"><feGaussianBlur stdDeviation="1.097"/></filter><linearGradient id="ab" gradientUnits="userSpaceOnUse" x1="209.663" y1="-395.219" x2="208.755" y2="-455.46" gradientTransform="matrix(1.193 0 0 -.616 -49.47 103.527)"><stop offset="0" stop-color="#3465A4"/><stop offset="1" stop-color="#729FCF"/></linearGradient><linearGradient id="ac" gradientUnits="userSpaceOnUse" x1="38.76" y1="-199.098" x2="-91.778" y2="-214.34" gradientTransform="matrix(.238 .238 .2467 -.2467 154.55 332.293)"><stop offset="0" stop-color="#870B1A"/><stop offset="1" stop-color="#6A5570"/></linearGradient><g transform="matrix(.1466 0 0 .2572 1.087 75.316)"><linearGradient id="af" gradientUnits="userSpaceOnUse" x1="1317.655" y1="-1297.02" x2="1317.655" y2="-1282.754" gradientTransform="matrix(.1928 0 0 -.3384 -188.756 822.732)"><stop offset="0" stop-color="#D68729"/><stop offset="1" stop-color="#D68729" stop-opacity="0"/></linearGradient><path fill="url(#af)" d="M55.5 1246.8c-2.2.5-9.1 4.1-11.5 4-2.5 0-2.7-.8-3-1.6-.2-.6-.5-1.2-2.3-1.2-2.2 0-11.3 2.1-15.4 2-1.2 0-.1-1.3-.5-1.6l-4.9 3.5-8.9-3.1-7.9 1.3-5.7-.8v13.3h140v-12.4l-5.7.7-7.9-1.3-8.9 2.8-4.9-3.3c-.4.3.6 1.5-.5 1.5-4 .1-13.1-1.8-15.4-1.8-1.8 0-2.1.6-2.3 1.2-.3.7-.5 1.5-3 1.5-2.4.1-9.3-3.2-11.5-3.7-2.1.4 2 1.3-1.3 1.8l-3.1-.4-6.1-1.7-7.9 1.1c-3.4-.3.7-1.3-1.4-1.8z"/><path fill="#D68729" d="M11.8 1250.6s-7.6 5.1-8 7.7c-.2 1.4-5 4.7-5 4.7h8.3s3.1-5.5 2.7-8.2c-.2-1.6 2-4.2 2-4.2zM22.5 1245.9s5 6.4 4.7 10.2c-.2 2.1-4.4 6.9-4.4 6.9l7.3.1s2.7-8.1 2.4-11.9c-.3-2.6-10-5.3-10-5.3z"/><path fill="#D68729" d="M19.1 1247.8s7.4 6.8 4.7 10.5c-1 1.4-5 4.7-5 4.7h8.3s3.1-5.5 2.7-8.2c-.2-1.6-10.7-7-10.7-7zM6.5 1242l-4.8 14.8.7 6.3h-5.8l4-15.1 5.9-6z"/><path fill="#D68729" d="M14.3 1248.2s-11.5 6.2-11.2 9.2c.2 1.7 4.4 5.5 4.4 5.5H.2s-2.7-6.5-2.4-9.5c.3-1.9 16.5-5.2 16.5-5.2z"/><path fill="#D68729" d="M15.9 1243.9l-4.7.1 3.1 11.3-4.3 7.7 7 .1 2.3-13.2-6.6-5.3 3.2-.7z"/><path fill="#D68729" d="M36.7 1247.5s-16.4 6.9-16.1 10c.2 1.7 3.8 5.5 3.8 5.5H18s-2.4-6.5-2.1-9.5c.2-2 20.8-6 20.8-6zM.4 1235.9l-4.7 19.4L0 1263l-7 .1-3.3-18.6 10.7-8.6z"/><path fill="#D68729" d="M27.2 1241.2l5.7 14.1-4.2 7.7 7 .1 2.3-13.2-10.8-8.7zM.7 1249s9.1 6.7 8.7 9.3c-.2 1.4-5 4.7-5 4.7h8.3s3.1-5.5 2.7-8.2c-.2-1.6-14.7-5.8-14.7-5.8zM13.2 1249s9.1 6.7 8.7 9.3c-.2 1.4-5 4.7-5 4.7h8.3s3.1-5.5 2.7-8.2c-.2-1.6-14.7-5.8-14.7-5.8zM57.6 1250.6s-7.6 5.1-8 7.7c-.2 1.4-5 4.7-5 4.7h8.3s3.1-5.5 2.7-8.2c-.2-1.6 2-4.2 2-4.2zM62.4 1245.9s5 6.4 4.7 10.2c-.2 2.1-4.4 6.9-4.4 6.9l7.3.1s2.7-8.1 2.4-11.9c-.3-2.6-10-5.3-10-5.3z"/><path fill="#D68729" d="M51.8 1249.6s7.2 5 4.5 8.7c-1 1.4-5 4.7-5 4.7h8.3s3.1-5.5 2.7-8.2c-.2-1.6-10.5-5.2-10.5-5.2zM40.1 1242l-4.8 14.8.7 6.3h-5.8l4-15.1 5.9-6z"/><path fill="#D68729" d="M51.7 1248.2s-11.5 6.2-11.2 9.2c.2 1.7 4.4 5.5 4.4 5.5h-7.3s-2.7-6.5-2.4-9.5c.3-1.9 16.5-5.2 16.5-5.2zM60.1 1243.9H64l3.1 11.3-4.2 7.7 7 .1 2.3-13.2-6.8-6.1-5.3.2z"/><path fill="#D68729" d="M72.2 1247.5s-16.4 6.9-16.1 10c.2 1.7 3.8 5.5 3.8 5.5h-6.4s-2.4-6.5-2.1-9.5c.2-2 20.8-6 20.8-6zM37.4 1238.2l4.7 17.8-4.2 7 7 .1 3.3-17-10.8-7.9z"/><path fill="#D68729" d="M47.7 1241.2l5.7 14.1-4.2 7.7 7 .1 2.3-13.2-10.8-8.7z"/><path fill="#D68729" d="M54.5 1249s9.1 6.7 8.7 9.3c-.2 1.4-5 4.7-5 4.7h8.3s3.1-5.5 2.7-8.2c-.1-1.6-14.7-5.8-14.7-5.8z"/><path fill="#D68729" d="M58.4 1249s9.1 6.7 8.7 9.3c-.2 1.4-5 4.7-5 4.7h8.3s3.1-5.5 2.7-8.2c-.2-1.6-14.7-5.8-14.7-5.8zM89.2 1250.6s7.6 5.1 8 7.7c.2 1.4 5 4.7 5 4.7h-8.3s-3.1-5.5-2.7-8.2c.2-1.6-2-4.2-2-4.2zM123.3 1245.9s-5 6.4-4.7 10.2c.2 2.1 4.4 6.9 4.4 6.9l-7.3.1s-2.7-8.1-2.4-11.9c.3-2.6 10-5.3 10-5.3z"/><path fill="#D68729" d="M81.9 1247.8s-7.4 6.8-4.7 10.5c1 1.4 5 4.7 5 4.7h-8.3s-3.1-5.5-2.7-8.2c.2-1.6 10.7-7 10.7-7zM94.5 1242l4.8 14.8-.7 6.3h5.8l-4-15.1-5.9-6z"/><path fill="#D68729" d="M86.7 1248.2s11.5 6.2 11.2 9.2c-.2 1.7-4.4 5.5-4.4 5.5h7.3s2.7-6.5 2.4-9.5c-.2-1.9-16.5-5.2-16.5-5.2z"/><path fill="#D68729" d="M85.2 1243.9l4.7.1-3.1 11.3 4.2 7.7-7 .1-2.3-13.2 6.6-5.3-3.1-.7zM108.4 1247.5s16.4 6.9 16.1 10c-.2 1.7-3.8 5.5-3.8 5.5h6.4s2.4-6.5 2.1-9.5c-.2-2-20.8-6-20.8-6z"/><path fill="#D68729" d="M81.5 1235.9l4.7 19.4-4.2 7.7 7 .1 3.3-18.6-10.8-8.6zM137.7 1241.2l-5.7 14.1 4.2 7.7-7 .1-2.3-13.2 10.8-8.7z"/><path fill="#D68729" d="M100.4 1249s-9.1 6.7-8.7 9.3c.2 1.4 5 4.7 5 4.7h-8.3s-3.1-5.5-2.7-8.2c.2-1.6 14.7-5.8 14.7-5.8z"/><path fill="#D68729" d="M87.8 1249s-9.1 6.7-8.7 9.3c.2 1.4 5 4.7 5 4.7h-8.3s-3.1-5.5-2.7-8.2c.2-1.6 14.7-5.8 14.7-5.8zM107.2 1250.6s7.6 5.1 8 7.7c.2 1.4 5 4.7 5 4.7h-8.3s-3.1-5.5-2.7-8.2c.3-1.6-2-4.2-2-4.2zM102.5 1245.9s-5 6.4-4.7 10.2c.2 2.1 4.4 6.9 4.4 6.9l-7.3.1s-2.7-8.1-2.4-11.9c.3-2.6 10-5.3 10-5.3z"/><path fill="#D68729" d="M113.1 1249.6s-7.2 5-4.5 8.7c1 1.4 5 4.7 5 4.7h-8.3s-3.1-5.5-2.7-8.2c.2-1.6 10.5-5.2 10.5-5.2zM126.8 1242l4.8 14.8-.7 6.3h5.8l-4-15.1-5.9-6z"/><path fill="#D68729" d="M104.7 1243.9h-3.9l-3.1 11.3 4.2 7.7-7 .1-2.3-13.2 6.8-6.1 5.3.2z"/><path fill="#D68729" d="M92.7 1247.5s16.4 6.9 16.1 10c-.2 1.7-3.8 5.5-3.8 5.5h6.4s2.4-6.5 2.1-9.5c-.2-2-20.8-6-20.8-6zM127.4 1238.2l-4.7 17.8 4.2 7-7 .1-3.3-17 10.8-7.9z"/><path fill="#D68729" d="M117.1 1241.2l-5.7 14.1 4.2 7.7-7 .1-2.3-13.2 10.8-8.7z"/></g></svg>