<svg xmlns="http://www.w3.org/2000/svg" viewBox="656.7 309.4 417 170"><path fill="#854800" d="M690.6 398.2c-5.7 7.6-10.6 16.3-11 25.6-.2 2.8-.1 5.6.2 8.4.3 0 .6.1.9.1-1-7.8-.4-15.9 3.3-23.2 1.8-3.8 4.1-7.3 6.6-10.9zM670.4 436.9c-2.7 1.4-5.2 3-5.5 3.9.9.4 3.8.1 6.7-.5 2.4 4.7 7.8 12 10.3 12.6 1.1.2 2.2.5 3.3.9h.2c.2-.4-.4-3.2-.2-3.8-.7-3-12.1-13.1-14.8-13.1zM692.8 439.8c.4.1.7.2 1 .4-1.6 1.8-3.1 3.8-4.4 5.9-.4-.2-.8-.4-1.2-.7 1.3-2 2.9-3.9 4.6-5.6z"/><path fill="#854800" d="M691.5 443.2c.6-.4 1.3-.7 2-.9 2.1-.9 6.1-10 5.7-11.8-1.8.3-8.1 8.2-8.1 10.3.2.3.1 2.2.4 2.4zM687.6 407.9c-.2.6-.6 1.2-1.3 2.1-1.6 1-4.1 1.8-3.9 3.8v.1l-.9 1.2c.1.1.2.2.4.3.3-.4.5-.8.8-1.1 2.3-.1 3-2.4 4-3.9.9-.8 1.5-1.2 2.1-1.4-.5.1-1.1.4-1.7.7.1-.7.4-1.3.5-1.8zM687.6 427.4v.2c-2.5 2.5-3.1 7.5-3.3 11.9-.2.3 0 1.4.2 2.1-.2.5-.4 1-.5 1.6.2.2.4.3.6.4.2-.6.3-1.2.5-1.8.4-.1.5-.6 1-1.2 1.4-4.2 2.9-9.3 1.5-12.9v-.1l-.1.1c.1-.2.1-.3.1-.3zm0 .2c.2 2-.1 3.1-1.3 6.6.2-3.7.4-4.8 1.3-6.6zM681.9 404.1c-.1.7-.4 1.4-1.1 2.4-1.5 1.2-4.1 2.5-3.6 4.5v.1c-.3.4-.6.9-.8 1.4.1.1.3.2.4.3.2-.4.5-.9.7-1.3 2.4-.4 2.8-2.9 3.6-4.6.8-.9 1.4-1.4 2-1.7-.5.2-1.1.5-1.7 1 .2-.9.4-1.6.5-2.1zM672.8 399.3c.5.5.9 1.1 1.3 2.3.1 1.9-.3 4.7 1.6 5.5v.1c.2.5.4 1 .7 1.4.2 0 .3-.1.5-.2-.2-.4-.5-.9-.7-1.3 1.1-2.2-.8-4-1.7-5.6-.3-1.2-.4-1.9-.3-2.6-.1.5-.2 1.2-.2 2-.3-.7-.8-1.2-1.2-1.6zM671.3 414.7c.7.4 1.2 1.1 2 2.2.6 2.1.9 5.4 3.2 5.7l.1.1c.4.5.7 1 1.1 1.4.2-.1.3-.2.5-.3-.4-.4-.7-.9-1.1-1.3.6-2.8-1.9-4.3-3.3-5.8-.7-1.3-.9-2.1-1-2.9 0 .6.1 1.4.3 2.2-.6-.5-1.3-1-1.8-1.3zM688 417.6c-.3.5-.8 1-1.7 1.7-1.7.5-4.3.6-4.5 2.6v.1c-.4.3-.8.6-1.1.9.1.1.1.3.3.4.3-.3.7-.6 1-.9 2.2.6 3.4-1.5 4.6-2.7 1-.5 1.6-.7 2.3-.8-.5 0-1.1.1-1.8.2.3-.5.7-1 .9-1.5z"/><path fill="#854800" d="M691 398.2c-5.7 7.6-10.6 16.3-11 25.6-.2 2.8-.1 5.6.2 8.4.3 0 .6.1.9.1-1-7.8-.4-15.9 3.3-23.2 1.9-3.8 4.2-7.3 6.6-10.9zM680.7 399.8c-.9.8-1.8 1.6-2.7 2.5 0 0 .1 0 .1.1l2.6-2.6zM673.1 426.9c0 .1 0 .1.1.2 3.4.9 5.9 4.9 7.9 8.5.3.2.6 1.2.6 1.8.4.4.8.7 1.1 1.1-.1.2-.3.4-.5.6-.4-.4-.8-.9-1.2-1.3-.4 0-.7-.3-1.5-.6-3-2.9-6.5-6.5-6.5-10.2l-.1-.1h.1c0 .1 0 .1 0 0zm.1.2c.6 1.8 1.3 2.6 3.8 5-1.7-3-2.2-3.9-3.8-5zM707.9 393.1c-7.4 6.3-14.4 13.9-17.3 23.6-1 2.9-1.6 5.9-2.1 8.9.3.1.5.3.8.4 1.2-8.5 4-16.9 9.5-23.5 2.7-3.4 5.8-6.4 9.1-9.4z"/><g fill="#854800"><path d="M680.3 481.3c1 .2 2.6 1.8 2.6-.2 5.9-17 8.4-35.2 6.4-53.1-.8-11.9.9-24.5 7.9-34.5 2.7-4.1 6-7.8 9.3-11.4-7.7 7.7-14.6 16.8-16.9 27.6-2.1 9-1.4 18.2-1 27.3.1 15.1-2.9 30.2-8.3 44.3z"/><path d="M679.1 399.1c-2 5.2-3.3 10.4-3 15.8.2 8.4 3.3 16.3 6 24.1 4 13.1 4.9 27.2 3.2 41 1-.1 3 .8 2.5-1 1.4-16.5-.8-33.1-7.3-48.1-3.8-10-5.3-21.2-1.3-31.8-.1-.1 0 0-.1 0z"/></g><g fill="#854800"><path d="M703.9 384.7c.8.6.9 1.6.4 2.4l-6.8 9.2c-.6.8-1.6.9-2.4.4-.8-.6-.9-1.6-.4-2.4l6.8-9.2c.6-.8 1.7-.9 2.4-.4zM705.3 395.2c.6.5.6 1.4.1 2l-6.5 6.9c-.5.6-1.4.6-2 .1-.6-.5-.6-1.4-.1-2l6.5-6.9c.5-.6 1.4-.7 2-.1z"/></g><g><path fill="#854800" d="M832.8 477.2l.2.1v1.9l-.2.1-.1.2-.1.2-.2.1-.2.1-.1.2H826l-.6-.3-.6-.3-.9-.3-.9-.3-.6-.3-.6-.3-.6-.2-.6-.1v-1.3l2.4-.1c1.6-.1 2.5-1.8 2.6-5.2.1-3.4-.7-9-2.6-17l-2.8-11.9-.2-.1-.1-.2-.1-.2-.2-.1-.2-.1-.1-.2-.1-.2-.2-.1-.3-1.6-.3-1.6-.2-.1-.1-.2-.1-.2-.2-.1-.2.1-.1.2-.1.2-.2.1v9.4c0 2.8-1.4 5-4.1 6.6-2.8 1.6-5.3 2.2-7.5 1.7s-3.9-1.8-5.1-4.1c-1.1-2.2-1.8-4.5-2-6.9l-.3-3.5V440l-.2-.1-.1-.2-.1-.2-.2-.1-.2-.1-.1-.2-.6-.2-.6-.1-.1 1.6-.2 1.6-.2.1-.1.2-.1.2-.2.1-2.3 1.2c-1.5.7-2.6 1.2-3.2 1.3-.6.1-1.1 1-1.4 2.7-.3 1.7-.3 6-.1 12.9.2 6.9.8 10.7 1.7 11.5.9.7 1.4 1.2 1.5 1.3l.2.1.2.1.1.2.6.3.6.3.6.3.6.3.1.2.2.1.2.1.1.2h-6.7l-.1-.2-.2-.1-.2-.1-.1-.2-.6-.3c-.4-.2-1.1-.6-2-1.2-.9-.5-1.5-5.6-1.7-15.3-.2-9.7 0-15.1.6-16.1.6-1.1.9-2.2.9-3.2 0-1.1.9-3.3 2.6-6.6 1.7-3.3 3.2-6.8 4.5-10.3 1.3-3.5 2-6 2-7.5s-.1-3.2-.2-5c-.1-1.8-.4-3.3-.9-4.3-.5-.9-.2-2 1-3 1.2-1.1 1.9-3.5 2.1-7.4s-.3-6.8-1.5-8.7c-1.2-1.9-3.8-5.1-7.8-9.5s-8.1-7.9-12.4-10.5-8-5.5-11.2-8.8c-3.1-3.4-5.8-5.7-8.1-7l-3.4-1.9-.2-.1-.1-.2-.1-.2-.2-.1-.2-.1-.1-.2-.1-.2-.2-.1-.2-2.6-.1-2.6.9.1.9.2.1.2.2.1.2.1.1.2 3.1 1c2 .6 3.5.8 4.3.3.8-.4 1.9-.5 3.4-.3 1.4.2 3.3 1.5 5.5 3.9s5.1 4.6 8.6 6.8 6.2 3.8 8.3 4.8c2 1.1 4.4 2 7 2.9 2.7.9 5.4 1.2 8.3 1 2.9-.2 6.1-2.1 9.7-5.7 3.5-3.5 9.3-9.5 17.3-17.9 8-8.4 12-12.8 12.1-13.2.1-.4 1.2-1.4 3.3-2.9 2.2-1.5 4.6-3.7 7.3-6.6 2.8-2.9 4.9-4.3 6.3-4.3 1.4 0 3.4 1.9 5.9 5.6 2.6 3.8 3.8 6.3 3.7 7.5-.1 1.2-.4 1.7-.9 1.5-.5-.1-1.1-.5-1.6-1.3-.5-.7-2.3-.5-5.5.6-3.1 1.2-5.7 2.8-7.6 4.9-2 2-3.6 3.5-4.9 4.5-1.3.9-2.6 2.5-3.7 4.5s-3.7 5.1-7.7 9.3c-4 4.2-6.8 7.9-8.6 11-1.7 3.1-2.8 5.1-3.3 5.8-.5.8-1.4 4.8-2.6 12.1-1.2 7.3-1.3 12.6-.3 15.8 1 3.2 1.9 7.3 2.8 12.3.8 4.9 1.4 9.4 1.8 13.2.4 3.9 1.1 7.3 2.1 10.3 1 3 1.4 5.1 1.2 6.1-.2 1.1-.3 3.7-.3 7.7 0 4.1.4 7.6 1.2 10.6.8 3 1.7 7.5 2.6 13.4 1.1 5.9 1.6 8.9 1.6 9z"/></g><g><path fill="none" stroke="#854800" stroke-width="2" stroke-linecap="round" d="M1051.4 367.4s-41.3 51.5-87.8 79.9-98.4 33.7-98.4 33.7"/><path fill="#854800" d="M985 422.3c.3-1.8 1.2-3.4 2.2-5 3-4.5 7.5-6.9 12.2-9.5 4.7-2 9.8-2.4 14.9-2.7 4.4 0 8.4-1.4 12.2-3.5-3.5 2.3 2.1-1.9 3-2.7l3.7-1.5c-3 2.5-6 4.8-9.5 6.5-3.8 2-7.8 3.3-12.2 3.2-5 .3-10.1.7-14.8 2.8.9-.7-5.2 3.5-6 5.8-.9 1.4-1.7 2.9-1.9 4.6l-3.8 2z"/><path fill="#854800" d="M1061.2 351.6l-25.5 5.3-.2-.1-.1.1v.1h-.1v.2l-6.2 43.2 37.2-22.9h.2v-.1l.1-.1v-.2l-.2-.1-5.2-25.4z"/><path fill="#525252" stroke="#854800" stroke-width="5" stroke-linecap="round" d="M1060.7 352.3l-31 47.1M1065.6 376.7l-29.9-19"/><path fill="#854800" d="M1022 404.2c-.2.4-2.6.2-3.1.1-.4 0-2.8-.1-3-.5-.2-.4 1.2-2.4 1.4-2.7.2-.4 1.5-2.4 1.9-2.4s1.4 2.2 1.6 2.6c.3.4 1.4 2.6 1.2 2.9zM1022.3 404.4c-.2.4.9 2.5 1.1 2.8s1.3 2.5 1.7 2.6c.4 0 1.7-2 1.9-2.4s1.6-2.4 1.4-2.7-2.6-.4-3-.5c-.5 0-2.9-.1-3.1.2zM1010.8 406.2c-.3.3-2.6-.5-3-.6s-2.7-.8-2.8-1.2c-.1-.4 1.7-2 2-2.3.3-.3 2.1-1.9 2.5-1.8.4.1.9 2.5 1 2.9 0 .4.6 2.7.3 3zM1011 406.5c-.3.3.3 2.6.4 3 .1.4.6 2.8 1 2.9.4.1 2.1-1.6 2.4-1.9s2.1-1.9 2-2.3c-.1-.4-2.4-1.1-2.8-1.2s-2.7-.8-3-.5zM996.7 409.4c-.2.4-2.6.2-3 .2-.4 0-2.8 0-3-.4s1.1-2.4 1.3-2.7c.2-.4 1.4-2.4 1.9-2.4.4 0 1.5 2.2 1.7 2.5.2.4 1.4 2.5 1.1 2.8zM997 409.6c-.2.4 1 2.4 1.2 2.8s1.3 2.5 1.8 2.5c.4 0 1.6-2.1 1.8-2.4.2-.4 1.5-2.4 1.3-2.8-.2-.4-2.6-.4-3-.4-.4 0-2.8 0-3.1.3z"/></g></svg>